<svg xmlns="http://www.w3.org/2000/svg"
     width="1512" height="200" viewBox="-225 305 1890 250"
     role="img" aria-labelledby="title desc">
  <title id="title">FareWise logo</title>
  <desc id="desc">FareWise wordmark with three comparison bars, the shortest bar selected.</desc>

  <!-- White background -->
  <rect x="-225" y="305" width="1890" height="250" fill="#ffffff"/>

  <path d="M 1013 417 L 1013 534 L 1036 534 L 1036 417 Z M 1233 418 L 1232 419 L 1229 420 L 1227 422 L 1224 423 L 1222 425 L 1221 425 L 1218 428 L 1217 428 L 1211 434 L 1211 435 L 1208 438 L 1208 439 L 1206 441 L 1206 442 L 1205 443 L 1205 444 L 1204 445 L 1204 446 L 1201 451 L 1201 453 L 1200 454 L 1200 456 L 1199 457 L 1199 460 L 1198 461 L 1198 464 L 1197 465 L 1197 485 L 1198 486 L 1198 491 L 1199 492 L 1199 494 L 1200 495 L 1200 497 L 1202 500 L 1202 502 L 1203 503 L 1204 506 L 1206 508 L 1207 511 L 1210 514 L 1210 515 L 1218 523 L 1219 523 L 1222 526 L 1223 526 L 1225 528 L 1226 528 L 1227 529 L 1228 529 L 1233 532 L 1235 532 L 1236 533 L 1238 533 L 1239 534 L 1242 534 L 1243 535 L 1247 535 L 1248 536 L 1270 536 L 1271 535 L 1276 535 L 1277 534 L 1279 534 L 1280 533 L 1282 533 L 1283 532 L 1285 532 L 1286 531 L 1288 531 L 1289 530 L 1290 530 L 1291 529 L 1292 529 L 1293 528 L 1296 527 L 1299 524 L 1300 524 L 1303 521 L 1304 521 L 1304 520 L 1301 517 L 1301 516 L 1298 513 L 1298 512 L 1294 508 L 1294 507 L 1291 504 L 1290 504 L 1283 510 L 1282 510 L 1279 512 L 1277 512 L 1276 513 L 1274 513 L 1273 514 L 1271 514 L 1270 515 L 1265 515 L 1264 516 L 1254 516 L 1253 515 L 1249 515 L 1248 514 L 1245 514 L 1244 513 L 1243 513 L 1242 512 L 1241 512 L 1240 511 L 1237 510 L 1234 507 L 1233 507 L 1229 503 L 1229 502 L 1226 499 L 1226 498 L 1223 493 L 1223 491 L 1222 490 L 1222 488 L 1221 487 L 1221 484 L 1222 483 L 1309 483 L 1310 482 L 1310 467 L 1309 466 L 1309 460 L 1308 459 L 1308 456 L 1307 455 L 1307 453 L 1306 452 L 1306 449 L 1305 448 L 1305 447 L 1304 446 L 1304 445 L 1303 444 L 1303 443 L 1302 442 L 1301 439 L 1299 437 L 1299 436 L 1296 433 L 1296 432 L 1291 427 L 1290 427 L 1286 423 L 1285 423 L 1284 422 L 1283 422 L 1282 421 L 1281 421 L 1276 418 L 1274 418 L 1273 417 L 1271 417 L 1270 416 L 1267 416 L 1266 415 L 1244 415 L 1243 416 L 1240 416 L 1239 417 L 1236 417 L 1235 418 Z M 1221 463 L 1222 462 L 1222 459 L 1224 456 L 1224 454 L 1225 453 L 1225 452 L 1227 450 L 1227 449 L 1236 440 L 1237 440 L 1242 437 L 1244 437 L 1245 436 L 1248 436 L 1249 435 L 1261 435 L 1262 436 L 1265 436 L 1268 438 L 1270 438 L 1272 440 L 1273 440 L 1275 442 L 1276 442 L 1280 446 L 1280 447 L 1284 452 L 1284 454 L 1285 455 L 1285 456 L 1286 457 L 1286 459 L 1287 460 L 1287 465 L 1286 466 L 1222 466 L 1221 465 Z M 1108 415 L 1107 416 L 1105 416 L 1104 417 L 1102 417 L 1099 419 L 1097 419 L 1095 421 L 1094 421 L 1092 423 L 1091 423 L 1085 429 L 1085 430 L 1083 432 L 1083 433 L 1080 438 L 1080 441 L 1079 442 L 1079 455 L 1080 456 L 1080 459 L 1081 460 L 1081 462 L 1082 463 L 1082 464 L 1084 466 L 1084 467 L 1090 473 L 1091 473 L 1093 475 L 1094 475 L 1095 476 L 1096 476 L 1101 479 L 1103 479 L 1104 480 L 1106 480 L 1107 481 L 1109 481 L 1110 482 L 1112 482 L 1113 483 L 1116 483 L 1117 484 L 1119 484 L 1120 485 L 1123 485 L 1124 486 L 1126 486 L 1127 487 L 1128 487 L 1129 488 L 1131 488 L 1132 489 L 1135 490 L 1137 492 L 1138 492 L 1142 497 L 1142 500 L 1143 501 L 1143 503 L 1142 504 L 1142 507 L 1140 509 L 1140 510 L 1137 513 L 1136 513 L 1131 516 L 1127 516 L 1126 517 L 1114 517 L 1113 516 L 1109 516 L 1108 515 L 1105 515 L 1104 514 L 1102 514 L 1101 513 L 1100 513 L 1099 512 L 1098 512 L 1097 511 L 1094 510 L 1087 504 L 1085 504 L 1085 505 L 1081 509 L 1081 510 L 1079 512 L 1079 513 L 1076 516 L 1076 517 L 1074 519 L 1074 520 L 1075 520 L 1079 524 L 1080 524 L 1082 526 L 1085 527 L 1087 529 L 1088 529 L 1091 531 L 1093 531 L 1096 533 L 1099 533 L 1100 534 L 1102 534 L 1103 535 L 1108 535 L 1109 536 L 1132 536 L 1133 535 L 1136 535 L 1137 534 L 1139 534 L 1140 533 L 1142 533 L 1143 532 L 1145 532 L 1146 531 L 1149 530 L 1151 528 L 1152 528 L 1159 521 L 1159 520 L 1161 518 L 1161 517 L 1163 514 L 1163 512 L 1164 511 L 1164 508 L 1165 507 L 1165 494 L 1164 493 L 1164 490 L 1163 489 L 1163 488 L 1162 487 L 1161 484 L 1158 481 L 1158 480 L 1156 478 L 1155 478 L 1152 475 L 1151 475 L 1149 473 L 1148 473 L 1143 470 L 1141 470 L 1140 469 L 1138 469 L 1135 467 L 1132 467 L 1131 466 L 1129 466 L 1128 465 L 1126 465 L 1125 464 L 1123 464 L 1122 463 L 1119 463 L 1118 462 L 1116 462 L 1115 461 L 1113 461 L 1112 460 L 1111 460 L 1110 459 L 1107 458 L 1103 454 L 1103 453 L 1101 450 L 1101 444 L 1102 443 L 1102 442 L 1104 440 L 1104 439 L 1105 438 L 1106 438 L 1108 436 L 1109 436 L 1110 435 L 1112 435 L 1113 434 L 1118 434 L 1119 433 L 1125 433 L 1126 434 L 1131 434 L 1132 435 L 1135 435 L 1138 437 L 1140 437 L 1141 438 L 1144 439 L 1149 443 L 1151 443 L 1153 441 L 1153 440 L 1155 438 L 1155 437 L 1158 434 L 1158 433 L 1160 431 L 1161 428 L 1158 425 L 1157 425 L 1155 423 L 1152 422 L 1150 420 L 1148 420 L 1145 418 L 1143 418 L 1142 417 L 1140 417 L 1139 416 L 1136 416 L 1135 415 L 1131 415 L 1130 414 L 1114 414 L 1113 415 Z M 518 414 L 516 414 L 515 413 L 501 413 L 500 414 L 496 414 L 495 415 L 493 415 L 492 416 L 491 416 L 490 417 L 487 418 L 485 420 L 484 420 L 475 429 L 475 430 L 473 432 L 473 433 L 472 434 L 471 434 L 470 433 L 470 415 L 447 415 L 447 534 L 471 534 L 471 468 L 472 467 L 472 463 L 473 462 L 473 460 L 474 459 L 474 457 L 475 456 L 476 453 L 478 451 L 478 450 L 487 441 L 488 441 L 493 438 L 495 438 L 496 437 L 500 437 L 501 436 L 510 436 L 511 437 L 516 437 L 517 438 L 518 438 Z M 300 424 L 290 434 L 290 435 L 286 440 L 286 441 L 285 442 L 285 443 L 284 444 L 284 445 L 281 450 L 281 452 L 279 455 L 279 458 L 278 459 L 278 464 L 277 465 L 277 485 L 278 486 L 278 490 L 279 491 L 279 493 L 280 494 L 280 496 L 281 497 L 281 499 L 282 500 L 282 502 L 283 503 L 283 504 L 284 505 L 285 508 L 289 513 L 289 514 L 300 525 L 301 525 L 303 527 L 306 528 L 308 530 L 309 530 L 310 531 L 312 531 L 315 533 L 317 533 L 318 534 L 321 534 L 322 535 L 328 535 L 329 536 L 341 536 L 342 535 L 347 535 L 348 534 L 350 534 L 351 533 L 353 533 L 354 532 L 355 532 L 356 531 L 357 531 L 358 530 L 359 530 L 360 529 L 363 528 L 367 524 L 368 524 L 374 517 L 375 517 L 376 518 L 376 533 L 377 534 L 378 534 L 379 533 L 380 533 L 381 534 L 382 533 L 387 533 L 388 534 L 394 534 L 395 533 L 399 533 L 399 415 L 376 415 L 376 431 L 375 432 L 374 432 L 373 431 L 373 430 L 365 422 L 364 422 L 359 418 L 357 418 L 352 415 L 350 415 L 349 414 L 345 414 L 344 413 L 325 413 L 324 414 L 320 414 L 319 415 L 317 415 L 316 416 L 314 416 L 313 417 L 312 417 L 311 418 L 310 418 L 309 419 L 306 420 L 304 422 L 303 422 L 301 424 Z M 334 435 L 344 435 L 345 436 L 348 436 L 349 437 L 351 437 L 352 438 L 353 438 L 354 439 L 356 439 L 358 441 L 359 441 L 369 451 L 369 452 L 371 454 L 371 455 L 372 456 L 372 458 L 373 459 L 373 460 L 374 461 L 374 463 L 375 464 L 375 469 L 376 470 L 376 479 L 375 480 L 375 485 L 374 486 L 374 488 L 373 489 L 373 491 L 372 492 L 372 493 L 371 494 L 370 497 L 367 500 L 367 501 L 361 507 L 358 508 L 356 510 L 355 510 L 354 511 L 352 511 L 351 512 L 349 512 L 348 513 L 344 513 L 343 514 L 336 514 L 335 513 L 330 513 L 329 512 L 327 512 L 326 511 L 324 511 L 323 510 L 322 510 L 320 508 L 317 507 L 309 499 L 309 498 L 307 496 L 307 495 L 304 490 L 304 488 L 303 487 L 303 484 L 302 483 L 302 466 L 303 465 L 303 462 L 304 461 L 304 459 L 305 458 L 305 457 L 306 456 L 307 453 L 309 451 L 309 450 L 316 443 L 317 443 L 320 440 L 321 440 L 326 437 L 328 437 L 329 436 L 333 436 Z M 581 415 L 580 416 L 579 416 L 578 417 L 577 417 L 576 418 L 575 418 L 574 419 L 571 420 L 568 423 L 567 423 L 556 434 L 556 435 L 552 440 L 552 441 L 551 442 L 551 443 L 548 448 L 548 450 L 547 451 L 547 453 L 546 454 L 546 456 L 545 457 L 545 461 L 544 462 L 544 472 L 543 473 L 543 475 L 544 476 L 544 485 L 545 486 L 545 490 L 546 491 L 546 493 L 547 494 L 547 496 L 548 497 L 548 499 L 549 500 L 549 501 L 550 502 L 550 503 L 551 504 L 552 507 L 554 509 L 554 510 L 556 512 L 556 513 L 567 524 L 568 524 L 573 528 L 574 528 L 575 529 L 576 529 L 577 530 L 578 530 L 583 533 L 586 533 L 587 534 L 589 534 L 590 535 L 593 535 L 594 536 L 602 536 L 603 537 L 613 537 L 614 536 L 622 536 L 623 535 L 627 535 L 628 534 L 630 534 L 631 533 L 633 533 L 634 532 L 636 532 L 637 531 L 638 531 L 639 530 L 640 530 L 641 529 L 642 529 L 643 528 L 646 527 L 648 525 L 649 525 L 651 523 L 652 523 L 655 520 L 652 517 L 652 516 L 648 512 L 648 511 L 644 507 L 644 506 L 641 503 L 637 507 L 636 507 L 634 509 L 633 509 L 628 512 L 626 512 L 625 513 L 623 513 L 622 514 L 620 514 L 619 515 L 613 515 L 612 516 L 606 516 L 605 515 L 599 515 L 598 514 L 595 514 L 594 513 L 592 513 L 591 512 L 588 511 L 586 509 L 585 509 L 583 507 L 582 507 L 577 502 L 577 501 L 574 498 L 574 497 L 572 495 L 572 494 L 571 493 L 571 491 L 570 490 L 570 488 L 569 487 L 569 485 L 568 484 L 568 483 L 569 482 L 661 482 L 661 462 L 660 461 L 660 456 L 659 455 L 659 453 L 658 452 L 658 449 L 656 446 L 656 444 L 655 443 L 655 442 L 654 441 L 653 438 L 651 436 L 651 435 L 649 433 L 649 432 L 638 421 L 635 420 L 633 418 L 632 418 L 629 416 L 627 416 L 626 415 L 625 415 L 624 414 L 622 414 L 621 413 L 618 413 L 617 412 L 611 412 L 610 411 L 598 411 L 597 412 L 591 412 L 590 413 L 587 413 L 586 414 L 584 414 L 583 415 Z M 569 459 L 570 458 L 570 456 L 571 455 L 571 453 L 572 452 L 572 451 L 574 449 L 574 448 L 577 445 L 577 444 L 581 440 L 582 440 L 585 437 L 586 437 L 591 434 L 594 434 L 595 433 L 599 433 L 600 432 L 609 432 L 610 433 L 614 433 L 615 434 L 617 434 L 618 435 L 619 435 L 620 436 L 623 437 L 626 440 L 627 440 L 628 441 L 628 442 L 632 446 L 632 447 L 634 449 L 634 450 L 636 453 L 636 455 L 637 456 L 637 459 L 638 460 L 638 463 L 637 464 L 570 464 L 569 463 Z M 1024 371 L 1023 372 L 1020 372 L 1019 373 L 1017 373 L 1012 378 L 1012 380 L 1011 381 L 1011 390 L 1012 391 L 1012 392 L 1014 394 L 1014 395 L 1015 395 L 1017 397 L 1018 397 L 1019 398 L 1021 398 L 1022 399 L 1027 399 L 1028 398 L 1030 398 L 1031 397 L 1032 397 L 1036 393 L 1036 392 L 1037 391 L 1037 389 L 1038 388 L 1038 382 L 1037 381 L 1037 379 L 1036 378 L 1036 377 L 1033 374 L 1032 374 L 1029 372 L 1026 372 L 1025 371 Z M 686 323 L 687 324 L 687 327 L 688 328 L 688 330 L 690 333 L 690 336 L 692 339 L 692 341 L 693 342 L 693 344 L 694 345 L 694 348 L 695 349 L 695 351 L 696 352 L 696 354 L 697 355 L 697 357 L 698 358 L 698 360 L 699 361 L 699 362 L 700 363 L 700 365 L 701 366 L 701 369 L 703 372 L 703 375 L 704 376 L 704 378 L 706 381 L 706 383 L 707 384 L 707 386 L 708 387 L 708 389 L 709 390 L 709 393 L 711 396 L 711 399 L 712 400 L 712 402 L 713 403 L 713 405 L 714 406 L 714 408 L 715 409 L 715 411 L 716 412 L 716 414 L 717 415 L 717 417 L 718 418 L 718 420 L 719 421 L 719 423 L 720 424 L 720 426 L 721 427 L 721 429 L 722 430 L 722 432 L 723 433 L 723 435 L 724 436 L 724 438 L 725 439 L 725 441 L 726 442 L 726 444 L 727 445 L 727 447 L 728 448 L 728 450 L 729 451 L 729 453 L 730 454 L 730 456 L 731 457 L 731 459 L 732 460 L 732 462 L 733 463 L 733 465 L 734 466 L 734 468 L 735 469 L 735 471 L 736 472 L 736 474 L 737 475 L 737 477 L 738 478 L 738 480 L 739 481 L 739 483 L 740 484 L 740 486 L 741 487 L 741 489 L 742 490 L 742 493 L 743 494 L 743 496 L 744 497 L 744 499 L 745 500 L 745 502 L 746 503 L 746 505 L 747 506 L 747 508 L 748 509 L 748 511 L 749 512 L 749 514 L 750 515 L 750 517 L 751 518 L 751 520 L 752 521 L 752 523 L 753 524 L 753 526 L 754 527 L 754 529 L 755 530 L 755 532 L 780 532 L 780 531 L 781 530 L 781 528 L 782 527 L 782 525 L 783 524 L 783 522 L 784 521 L 784 519 L 785 518 L 785 516 L 786 515 L 786 513 L 787 512 L 787 510 L 789 507 L 789 505 L 790 504 L 790 502 L 791 501 L 791 499 L 792 498 L 792 496 L 793 495 L 793 493 L 795 490 L 795 488 L 796 487 L 796 485 L 797 484 L 797 482 L 798 481 L 798 479 L 799 478 L 799 476 L 801 473 L 801 471 L 802 470 L 802 468 L 803 467 L 803 465 L 804 464 L 804 462 L 806 459 L 806 457 L 807 456 L 807 454 L 808 453 L 808 451 L 810 448 L 810 446 L 811 445 L 811 443 L 812 442 L 812 440 L 814 437 L 814 435 L 815 434 L 815 432 L 816 431 L 816 429 L 817 428 L 817 426 L 819 423 L 819 421 L 820 420 L 820 418 L 822 415 L 822 412 L 824 409 L 824 407 L 825 406 L 825 404 L 826 403 L 826 402 L 827 401 L 827 399 L 829 396 L 829 394 L 830 393 L 830 391 L 831 390 L 831 388 L 833 385 L 833 383 L 834 382 L 834 380 L 837 375 L 838 375 L 839 376 L 839 378 L 840 379 L 840 381 L 842 384 L 842 386 L 843 387 L 843 389 L 844 390 L 844 392 L 846 395 L 846 397 L 847 398 L 847 400 L 848 401 L 848 403 L 850 406 L 850 408 L 851 409 L 851 411 L 852 412 L 852 414 L 853 415 L 853 417 L 854 418 L 854 420 L 856 423 L 856 425 L 857 426 L 857 428 L 858 429 L 858 431 L 859 432 L 859 434 L 860 435 L 860 437 L 862 440 L 862 442 L 863 443 L 863 445 L 864 446 L 864 448 L 865 449 L 865 451 L 867 454 L 867 456 L 868 457 L 868 459 L 869 460 L 869 462 L 870 463 L 870 465 L 872 468 L 872 470 L 873 471 L 873 473 L 874 474 L 874 476 L 875 477 L 875 479 L 876 480 L 876 482 L 878 485 L 878 487 L 879 488 L 879 490 L 880 491 L 880 493 L 881 494 L 881 496 L 882 497 L 882 499 L 884 502 L 884 504 L 885 505 L 885 507 L 886 508 L 886 510 L 887 511 L 887 513 L 888 514 L 888 516 L 889 517 L 889 519 L 890 520 L 890 522 L 892 525 L 892 527 L 893 528 L 893 530 L 894 531 L 894 532 L 919 532 L 919 530 L 920 529 L 920 527 L 921 526 L 921 524 L 922 523 L 922 521 L 923 520 L 923 518 L 924 517 L 924 515 L 925 514 L 925 512 L 926 511 L 926 509 L 927 508 L 927 506 L 929 503 L 929 500 L 931 497 L 931 495 L 932 494 L 932 492 L 933 491 L 933 489 L 934 488 L 934 486 L 935 485 L 935 483 L 936 482 L 936 480 L 937 479 L 937 477 L 938 476 L 938 474 L 939 473 L 939 471 L 940 470 L 940 468 L 942 465 L 942 463 L 943 462 L 943 459 L 945 456 L 945 454 L 946 453 L 946 451 L 947 450 L 947 448 L 948 447 L 948 445 L 949 444 L 949 442 L 950 441 L 950 439 L 951 438 L 951 436 L 952 435 L 952 433 L 953 432 L 953 430 L 954 429 L 954 427 L 955 426 L 955 424 L 956 423 L 956 421 L 957 420 L 957 418 L 958 417 L 958 415 L 959 414 L 959 412 L 960 411 L 960 409 L 961 408 L 961 406 L 962 405 L 962 403 L 963 402 L 963 400 L 964 399 L 964 397 L 966 394 L 966 391 L 967 390 L 967 388 L 968 387 L 968 385 L 969 384 L 969 382 L 971 379 L 971 376 L 972 375 L 972 373 L 973 372 L 973 370 L 975 367 L 975 364 L 977 361 L 977 359 L 978 358 L 978 355 L 979 354 L 979 352 L 980 351 L 980 349 L 981 348 L 981 346 L 982 345 L 982 343 L 983 342 L 983 340 L 984 339 L 984 337 L 985 336 L 985 334 L 986 333 L 986 331 L 987 330 L 987 328 L 988 327 L 988 325 L 989 324 L 989 323 L 977 323 L 976 322 L 975 323 L 974 322 L 966 322 L 965 323 L 962 323 L 961 322 L 960 323 L 958 323 L 958 325 L 957 326 L 957 328 L 956 329 L 956 331 L 955 332 L 955 334 L 954 335 L 954 337 L 953 338 L 953 340 L 952 341 L 952 343 L 951 344 L 951 346 L 950 347 L 950 350 L 949 351 L 949 353 L 947 356 L 947 359 L 945 362 L 945 365 L 944 366 L 944 368 L 943 369 L 943 371 L 942 372 L 942 374 L 941 375 L 941 377 L 940 378 L 940 380 L 939 381 L 939 383 L 938 384 L 938 386 L 937 387 L 937 389 L 936 390 L 936 392 L 935 393 L 935 395 L 934 396 L 934 398 L 933 399 L 933 401 L 932 402 L 932 404 L 931 405 L 931 407 L 930 408 L 930 410 L 929 411 L 929 413 L 928 414 L 928 416 L 927 417 L 927 419 L 926 420 L 926 422 L 925 423 L 925 425 L 924 426 L 924 428 L 923 429 L 923 431 L 922 432 L 922 434 L 921 435 L 921 437 L 920 438 L 920 440 L 919 441 L 919 443 L 918 444 L 918 446 L 917 447 L 917 449 L 916 450 L 916 452 L 915 453 L 915 455 L 914 456 L 914 458 L 913 459 L 913 461 L 912 462 L 912 464 L 911 465 L 911 468 L 909 471 L 909 474 L 908 475 L 908 477 L 906 479 L 905 478 L 905 476 L 904 475 L 904 473 L 903 472 L 903 470 L 902 469 L 902 467 L 901 466 L 901 464 L 900 463 L 900 461 L 898 458 L 898 456 L 897 455 L 897 453 L 896 452 L 896 450 L 895 449 L 895 447 L 893 444 L 893 442 L 892 441 L 892 439 L 891 438 L 891 436 L 890 435 L 890 433 L 889 432 L 889 430 L 887 427 L 887 425 L 886 424 L 886 422 L 885 421 L 885 419 L 884 418 L 884 416 L 883 415 L 883 413 L 882 412 L 882 410 L 880 407 L 880 405 L 879 404 L 879 402 L 878 401 L 878 399 L 877 398 L 877 396 L 876 395 L 876 393 L 875 392 L 875 390 L 874 389 L 874 387 L 872 384 L 872 382 L 871 381 L 871 379 L 870 378 L 870 376 L 869 375 L 869 373 L 868 372 L 868 370 L 867 369 L 867 367 L 866 366 L 866 364 L 865 363 L 865 361 L 864 360 L 864 358 L 863 357 L 863 355 L 862 354 L 862 352 L 861 351 L 861 349 L 860 348 L 860 346 L 859 345 L 859 343 L 857 340 L 857 338 L 856 337 L 856 335 L 855 334 L 855 332 L 854 331 L 854 329 L 853 328 L 853 326 L 852 325 L 852 323 L 851 322 L 851 320 L 825 320 L 825 321 L 824 322 L 824 324 L 823 325 L 823 327 L 822 328 L 822 330 L 821 331 L 821 333 L 820 334 L 820 336 L 818 339 L 818 341 L 817 342 L 817 344 L 816 345 L 816 347 L 815 348 L 815 350 L 814 351 L 814 353 L 813 354 L 813 356 L 812 357 L 812 359 L 810 362 L 810 364 L 809 365 L 809 367 L 808 368 L 808 370 L 806 373 L 806 376 L 804 379 L 804 381 L 803 382 L 803 384 L 802 385 L 802 387 L 801 388 L 801 390 L 799 393 L 799 395 L 798 396 L 798 398 L 797 399 L 797 401 L 796 402 L 796 404 L 795 405 L 795 407 L 794 408 L 794 410 L 792 413 L 792 415 L 791 416 L 791 418 L 789 421 L 789 423 L 788 424 L 788 426 L 787 427 L 787 429 L 786 430 L 786 432 L 785 433 L 785 435 L 784 436 L 784 438 L 782 441 L 782 443 L 781 444 L 781 446 L 780 447 L 780 449 L 778 452 L 778 454 L 777 455 L 777 457 L 776 458 L 776 460 L 775 461 L 775 463 L 774 464 L 774 466 L 773 467 L 773 469 L 771 472 L 771 474 L 770 475 L 770 477 L 769 478 L 768 478 L 767 477 L 767 475 L 766 474 L 766 472 L 765 471 L 765 468 L 764 467 L 764 465 L 763 464 L 763 462 L 762 461 L 762 459 L 761 458 L 761 456 L 760 455 L 760 453 L 759 452 L 759 450 L 758 449 L 758 447 L 757 446 L 757 444 L 756 443 L 756 440 L 755 439 L 755 437 L 754 436 L 754 434 L 753 433 L 753 431 L 752 430 L 752 428 L 751 427 L 751 425 L 750 424 L 750 422 L 749 421 L 749 419 L 748 418 L 748 416 L 747 415 L 747 413 L 746 412 L 746 410 L 745 409 L 745 407 L 744 406 L 744 404 L 743 403 L 743 401 L 742 400 L 742 398 L 741 397 L 741 394 L 740 393 L 740 391 L 739 390 L 739 388 L 738 387 L 738 385 L 737 384 L 737 382 L 736 381 L 736 378 L 735 377 L 735 375 L 734 374 L 734 372 L 733 371 L 733 369 L 732 368 L 732 366 L 731 365 L 731 363 L 730 362 L 730 360 L 729 359 L 729 357 L 728 356 L 728 354 L 727 353 L 727 351 L 726 350 L 726 348 L 725 347 L 725 345 L 724 344 L 724 342 L 723 341 L 723 338 L 722 337 L 722 335 L 721 334 L 721 332 L 720 331 L 720 329 L 719 328 L 719 326 L 718 325 L 718 323 Z M 268 320 L 131 320 L 131 501 L 130 502 L 130 505 L 131 506 L 131 507 L 130 508 L 131 509 L 131 529 L 130 530 L 131 531 L 131 533 L 160 533 L 160 445 L 162 443 L 163 444 L 245 444 L 246 443 L 254 443 L 254 415 L 161 415 L 160 414 L 160 351 L 162 349 L 163 350 L 165 350 L 166 349 L 168 349 L 169 350 L 170 350 L 171 349 L 268 349 Z" fill="#00133f" fill-rule="evenodd"/>

  <!-- Comparison bars -->
  <rect x="1387" y="348" width="262" height="31" rx="15.5" fill="#9b9b9b"/>
  <rect x="1387" y="425" width="183" height="31" rx="15.5" fill="#9b9b9b"/>

  <!-- Selected shortest bar -->
  <rect x="1379.5" y="489.5" width="148" height="55" rx="27.5"
        fill="none" stroke="#666666" stroke-width="3"/>
  <rect x="1399" y="502" width="110" height="30" rx="15" fill="#8f8f8f"/>
</svg>
